<?xml version="1.0" encoding="iso-8859-1"?>
<!-- Uploaded to: SVG Repo, www.svgrepo.com, Generator: SVG Repo Mixer Tools -->
<svg fill="#0000FF" height="800px" width="800px" version="1.1" id="Layer_1" xmlns="http://www.w3.org/2000/svg" xmlns:xlink="http://www.w3.org/1999/xlink" 
	 viewBox="0 0 512.001 512.001" xml:space="preserve">
<g>
	<g>
		<path d="M505.299,109.881c-4.767-5.164-11.531-8.125-18.559-8.125H341.453V73.564c7.998-2.685,14.318-9.275,16.452-17.835
			c1.628-6.546,0.611-13.334-2.865-19.117c-3.477-5.785-8.999-9.867-15.543-11.495c-24.541-6.117-53.414-9.35-83.497-9.35
			S197.045,19,172.507,25.116c-6.547,1.63-12.069,5.711-15.546,11.496c-3.475,5.783-4.493,12.571-2.861,19.126
			c1.645,6.575,5.758,12.113,11.583,15.59c1.559,0.931,3.189,1.676,4.865,2.247v28.182H25.259c-7.027,0-13.792,2.961-18.559,8.125
			c-4.768,5.164-7.181,12.143-6.621,19.149l7.089,88.607v227.54c0,28.152,22.904,51.056,51.056,51.056h395.552
			c28.152,0,51.056-22.904,51.056-51.056V217.636l7.089-88.607C512.481,122.023,510.067,115.044,505.299,109.881z M169.743,51.834
			c-0.59-2.367-0.221-4.823,1.037-6.916c1.258-2.092,3.253-3.567,5.622-4.158c23.286-5.803,50.81-8.872,79.598-8.872
			c28.788,0,56.312,3.068,79.602,8.873c2.366,0.589,4.362,2.065,5.619,4.156c1.259,2.092,1.627,4.548,1.038,6.914
			c-1.017,4.08-4.658,6.929-8.855,6.929c-0.757,0-1.495-0.089-2.221-0.273c-21.869-5.446-47.866-8.326-75.182-8.326
			c-27.316,0-53.313,2.88-75.219,8.336c-0.699,0.177-1.406,0.259-2.111,0.267c-0.02,0-0.04-0.003-0.059-0.003
			c-0.021,0-0.042,0.003-0.062,0.003c-1.598-0.004-3.177-0.431-4.597-1.278C171.832,56.221,170.337,54.211,169.743,51.834z
			 M325.33,73.665v28.091H186.672v-28.09c20.211-4.826,44.121-7.38,69.329-7.38C281.219,66.286,305.139,68.841,325.33,73.665z
			 M488.71,445.178c0,19.263-15.67,34.933-34.933,34.933H58.225c-19.263,0-34.933-15.671-34.933-34.933V303.456
			c2.826,4.075,6.099,7.869,9.808,11.294c2.66,2.456,5.497,4.665,8.465,6.645v123.783c0,9.187,7.474,16.66,16.66,16.66h395.552
			c9.187,0,16.66-7.474,16.66-16.66V321.395c2.968-1.981,5.804-4.189,8.465-6.645c3.709-3.424,6.982-7.22,9.808-11.294V445.178z
			 M144.214,367.249c13.928,0,25.259-11.331,25.259-25.259v-9.136h173.054v9.136c0,13.928,11.331,25.259,25.259,25.259
			s25.259-11.331,25.259-25.259v-9.136h39.556c7.464,0,14.783-1.214,21.711-3.535v115.859c0,0.296-0.242,0.537-0.537,0.537H58.225
			c-0.296,0-0.537-0.242-0.537-0.537v-115.86c6.929,2.322,14.247,3.535,21.711,3.535h39.556v9.136
			C118.955,355.918,130.286,367.249,144.214,367.249z M144.214,341.453c3.221,0,6.301-0.613,9.136-1.717v2.254
			c0,5.038-4.098,9.136-9.136,9.136c-5.038,0-9.136-4.098-9.136-9.136v-2.254C137.913,340.84,140.993,341.453,144.214,341.453z
			 M135.078,316.193v-17.735h18.273v17.735c0,5.038-4.098,9.136-9.136,9.136C139.176,325.33,135.078,321.23,135.078,316.193z
			 M367.787,341.453c3.221,0,6.301-0.613,9.136-1.717v2.254c0,5.038-4.098,9.136-9.136,9.136c-5.038,0-9.136-4.098-9.136-9.136
			v-2.254C361.486,340.84,364.566,341.453,367.787,341.453z M358.651,316.193v-17.735h18.273v17.735
			c0,5.038-4.098,9.136-9.136,9.136C362.749,325.33,358.651,321.23,358.651,316.193z M495.848,127.745l-11.281,141.011
			c-2.152,26.901-24.977,47.974-51.966,47.974h-39.556v-26.334c0-4.453-3.608-8.062-8.062-8.062h-34.396
			c-4.453,0-8.062,3.608-8.062,8.062v26.334H169.473v-26.334c0-4.453-3.608-8.062-8.062-8.062h-34.396
			c-4.453,0-8.062,3.608-8.062,8.062v26.334H79.399c-26.988,0-49.814-21.072-51.966-47.974L16.152,127.745
			c-0.205-2.572,0.645-5.033,2.395-6.928c1.75-1.895,4.134-2.938,6.713-2.938h461.482c2.579,0,4.963,1.044,6.713,2.938
			C495.204,122.713,496.054,125.174,495.848,127.745z"/>
	</g>
</g>
</svg>
